<mxfile host="Electron" modified="2024-03-14T15:16:30.647Z" agent="Mozilla/5.0 (Windows NT 10.0; Win64; x64) AppleWebKit/537.36 (KHTML, like Gecko) draw.io/24.0.4 Chrome/120.0.6099.109 Electron/28.1.0 Safari/537.36" etag="o86pQ10mon3rPbzRyRWS" version="24.0.4" type="device">
  <diagram name="第 1 页" id="6VdJ76q4XLyQ5IodUu4T">
    <mxGraphModel dx="1430" dy="437" grid="0" gridSize="10" guides="1" tooltips="1" connect="1" arrows="1" fold="1" page="0" pageScale="1" pageWidth="827" pageHeight="1169" math="0" shadow="0">
      <root>
        <mxCell id="0" />
        <mxCell id="1" parent="0" />
        <mxCell id="t8tqSMZSb6N4MK5IelTE-9" value="" style="rounded=0;whiteSpace=wrap;html=1;dashed=1;strokeWidth=2;" vertex="1" parent="1">
          <mxGeometry x="313.5" y="545.5" width="277" height="426" as="geometry" />
        </mxCell>
        <mxCell id="t8tqSMZSb6N4MK5IelTE-1" value="TestScript.py" style="rounded=0;whiteSpace=wrap;html=1;fontSize=15;fontStyle=1;fillColor=#d5e8d4;strokeColor=#82b366;" vertex="1" parent="1">
          <mxGeometry x="352" y="580" width="200" height="45" as="geometry" />
        </mxCell>
        <mxCell id="t8tqSMZSb6N4MK5IelTE-2" value="测试工程1" style="rounded=0;whiteSpace=wrap;html=1;fontSize=15;fontStyle=1;fillColor=#fff2cc;strokeColor=#d6b656;" vertex="1" parent="1">
          <mxGeometry x="352" y="632" width="200" height="45" as="geometry" />
        </mxCell>
        <mxCell id="t8tqSMZSb6N4MK5IelTE-3" value="测试工程2" style="rounded=0;whiteSpace=wrap;html=1;fontSize=15;fontStyle=1;fillColor=#fff2cc;strokeColor=#d6b656;" vertex="1" parent="1">
          <mxGeometry x="352" y="684" width="200" height="45" as="geometry" />
        </mxCell>
        <mxCell id="t8tqSMZSb6N4MK5IelTE-4" value="……" style="rounded=0;whiteSpace=wrap;html=1;fontSize=15;fontStyle=1;fillColor=#fff2cc;strokeColor=#d6b656;" vertex="1" parent="1">
          <mxGeometry x="352" y="736" width="200" height="45" as="geometry" />
        </mxCell>
        <mxCell id="t8tqSMZSb6N4MK5IelTE-5" value="2024-01-01log.txt" style="rounded=0;whiteSpace=wrap;html=1;fontSize=15;fontStyle=1;fillColor=#dae8fc;strokeColor=#6c8ebf;" vertex="1" parent="1">
          <mxGeometry x="352" y="788" width="200" height="45" as="geometry" />
        </mxCell>
        <mxCell id="t8tqSMZSb6N4MK5IelTE-6" value="2024-01-02log.txt" style="rounded=0;whiteSpace=wrap;html=1;fontSize=15;fontStyle=1;fillColor=#dae8fc;strokeColor=#6c8ebf;" vertex="1" parent="1">
          <mxGeometry x="352" y="840" width="200" height="45" as="geometry" />
        </mxCell>
        <mxCell id="t8tqSMZSb6N4MK5IelTE-7" value="……" style="rounded=0;whiteSpace=wrap;html=1;fontSize=15;fontStyle=1;fillColor=#dae8fc;strokeColor=#6c8ebf;" vertex="1" parent="1">
          <mxGeometry x="352" y="892" width="200" height="45" as="geometry" />
        </mxCell>
      </root>
    </mxGraphModel>
  </diagram>
</mxfile>
